#!OML:ASF F:\VICON\USERDATA\INSTALL\rory3\rory3.ASF
:FULLY-SPECIFIED
:DEGREES
413
root 1.32117 16.5736 28.3923 35.0008 5.5484 -0.615695
lowerback -15.8227 -2.24683 1.40075
upperback -12.8932 -3.04729 3.64153
thorax -4.80397 -1.48316 2.72554
lowerneck -7.51167 -0.385775 -1.86087
upperneck 44.5463 -0.28906 0.120257
head 17.8045 -0.421113 0.348455
rclavicle -1.28465e-014 1.11319e-014
rhumerus -13.5851 -22.7079 -4.68982
rradius 22.163
rwrist 11.9853
rhand 20.8107 6.1209
rfingers 7.12502
rthumb 45.2895 -17.2637
lclavicle -1.28465e-014 1.11319e-014
lhumerus 53.4182 11.0116 6.38064
lradius 39.432
lwrist -10.0083
lhand 19.4938 12.0766
lfingers 7.12502
lthumb 44.0632 35.9359
rfemur -57.5425 3.63372 31.2138
rtibia 40.5306
rfoot -46.8125 -34.9121
rtoes 33.8473
lfemur -12.6325 -5.01023 -23.9439
ltibia 28.224
lfoot -20.4776 44.7963
ltoes 50.5977
414
root 1.32011 16.5729 28.3924 34.9845 5.52902 -0.637796
lowerback -15.7804 -2.25976 1.36919
upperback -12.9531 -3.05714 3.67894
thorax -4.88911 -1.48381 2.78636
lowerneck -7.36887 -0.386941 -1.94962
upperneck 44.5245 -0.293805 0.169074
head 17.7539 -0.43174 0.386797
rclavicle 8.27441e-015 1.59028e-015
rhumerus -13.5777 -22.3115 -4.62733
rradius 22.1678
rwrist 11.672
rhand 20.7438 6.11605
rfingers 7.12502
rthumb 45.2273 -17.2934
lclavicle 8.27441e-015 1.59028e-015
lhumerus 53.4402 10.962 6.44511
lradius 39.487
lwrist -10.1026
lhand 19.7564 12.2554
lfingers 7.12502
lthumb 44.3081 36.0224
rfemur -57.5674 3.77591 31.1517
rtibia 40.6109
rfoot -46.9883 -35.054
rtoes 33.9012
lfemur -12.5389 -5.04523 -23.9282
ltibia 28.0993
lfoot -21.8822 44.2331
ltoes 50.9012
415
root 1.32065 16.5712 28.3916 35.0684 5.39342 -0.459734
lowerback -15.9046 -2.28459 1.14322
upperback -12.9436 -3.07033 3.63496
thorax -4.80297 -1.47691 2.85869
lowerneck -7.37393 -0.381407 -1.95726
upperneck 44.4371 -0.286738 0.177674
head 17.7015 -0.428501 0.393165
rclavicle -1.56543e-014 4.13472e-014
rhumerus -13.5347 -22.8816 -4.53452
rradius 22.0602
rwrist 12.1063
rhand 20.9723 6.0214
rfingers 7.12502
rthumb 45.4397 -17.3028
lclavicle -1.56543e-014 4.13472e-014
lhumerus 53.5098 11.1018 6.57214
lradius 39.4458
lwrist -10.3819
lhand 19.9653 12.1226
lfingers 7.12502
lthumb 44.5028 35.8153
rfemur -57.7168 3.92295 30.8016
rtibia 40.6743
rfoot -47.2338 -35.2791
rtoes 33.668
lfemur -12.5565 -5.11881 -24.161
ltibia 28.0235
lfoot -23.0035 43.8054
ltoes 51.2301
416
root 1.32272 16.5714 28.3904 35.0764 5.34885 -0.496441
lowerback -15.9565 -2.24127 1.16957
upperback -12.936 -3.01738 3.62461
thorax -4.77144 -1.45233 2.83668
lowerneck -7.42406 -0.385613 -1.89994
upperneck 44.4416 -0.2885 0.138219
head 17.7172 -0.424201 0.364125
rclavicle -3.52843e-015 1.59028e-014
rhumerus -13.5856 -23.4337 -4.38968
rradius 21.9775
rwrist 12.4898
rhand 21.2079 6.08751
rfingers 7.12502
rthumb 45.6587 -17.1478
lclavicle -3.52843e-015 1.59028e-014
lhumerus 53.6332 11.1071 6.66798
lradius 39.4186
lwrist -10.4233
lhand 19.9962 12.0647
lfingers 7.12502
lthumb 44.5316 35.7465
rfemur -57.7329 3.92619 30.8299
rtibia 40.683
rfoot -47.1733 -35.2345
rtoes 33.5322
lfemur -12.5598 -5.1421 -24.1624
ltibia 28.0216
lfoot -23.7879 43.4551
ltoes 51.4108
417
root 1.32214 16.5735 28.3879 35.0335 5.41646 -0.602651
lowerback -15.8794 -2.23863 1.29104
upperback -12.9834 -3.02286 3.66005
thorax -4.86924 -1.46163 2.81121
lowerneck -7.48945 -0.324519 -1.67959
upperneck 44.5164 -0.151045 -0.0871689
head 17.7774 -0.36071 0.240731
rclavicle -3.8763e-014 2.38542e-014
rhumerus -13.6399 -22.9897 -4.40247
rradius 22.0659
rwrist 12.0451
rhand 21.2005 6.13611
rfingers 7.12502
rthumb 45.6517 -17.102
lclavicle -3.8763e-014 2.38542e-014
lhumerus 53.5278 10.8846 6.34755
lradius 39.5759
lwrist -10.0165
lhand 19.8217 12.289
lfingers 7.12502
lthumb 44.369 36.0329
rfemur -57.6795 3.962 30.9519
rtibia 40.6589
rfoot -47.1798 -35.2596
rtoes 33.5362
lfemur -12.57 -5.07542 -24.0179
ltibia 28.0537
lfoot -23.6988 43.5068
ltoes 51.422
418
root 1.32248 16.5763 28.3855 35.0171 5.51508 -0.656699
lowerback -15.8111 -2.23817 1.37897
upperback -13.0413 -3.02708 3.67414
thorax -4.97368 -1.46867 2.78215
lowerneck -7.52857 -0.274809 -1.46151
upperneck 44.5722 -0.0413433 -0.286688
head 17.8204 -0.304909 0.125303
rclavicle -1.1865e-014 6.36111e-015
rhumerus -13.7495 -22.4149 -4.35227
rradius 22.214
rwrist 11.595
rhand 21.3306 6.22178
rfingers 7.12502
rthumb 45.7725 -16.9669
lclavicle -1.1865e-014 6.36111e-015
lhumerus 53.4704 10.6836 6.08531
lradius 39.7663
lwrist -9.55492
lhand 19.4982 12.5279
lfingers 7.12502
lthumb 44.0674 36.3856
rfemur -57.6612 3.94772 31.0339
rtibia 40.6077
rfoot -47.0702 -35.4596
rtoes 33.2054
lfemur -12.6144 -5.02354 -23.904
ltibia 28.1374
lfoot -23.9722 43.3333
ltoes 51.5009
419
root 1.32136 16.5737 28.3826 35.0484 5.55511 -0.748175
lowerback -15.8398 -2.22533 1.45507
upperback -13.0751 -3.01739 3.69396
thorax -5.00009 -1.46806 2.76225
lowerneck -7.3828 -0.254109 -1.44189
upperneck 44.4359 -0.0241395 -0.268774
head 17.6977 -0.2912 0.133413
rclavicle -6.75868e-015 -9.54166e-015
rhumerus -13.7622 -22.7271 -4.30732
rradius 22.1587
rwrist 12.0801
rhand 21.3153 6.43333
rfingers 7.12502
rthumb 45.7584 -16.7612
lclavicle -6.75868e-015 -9.54166e-015
lhumerus 53.6832 10.7255 6.33811
lradius 39.6736
lwrist -9.84046
lhand 19.5209 12.5223
lfingers 7.12502
lthumb 44.0885 36.3721
rfemur -57.6989 4.21067 30.9829
rtibia 40.5483
rfoot -47.3742 -35.6095
rtoes 33.5469
lfemur -12.6671 -5.09964 -23.7891
ltibia 28.2394
lfoot -27.4764 41.377
ltoes 52.3077
420
root 1.32788 16.574 28.3813 35.0141 5.71463 -0.827964
lowerback -15.8412 -2.19935 1.69287
upperback -13.0699 -3.00846 3.67866
thorax -5.00761 -1.4812 2.61401
lowerneck -7.49952 -0.291608 -1.39976
upperneck 44.5664 -0.0867893 -0.27909
head 17.8091 -0.311723 0.110334
rclavicle -2.32702e-014 2.38542e-014
rhumerus -13.7708 -23.3329 -4.21882
rradius 22.0033
rwrist 12.7157
rhand 21.3041 6.51426
rfingers 7.12502
rthumb 45.7479 -16.6845
lclavicle -2.32702e-014 2.38542e-014
lhumerus 53.9518 10.8197 6.65934
lradius 39.5472
lwrist -10.2694
lhand 19.665 12.3909
lfingers 7.12502
lthumb 44.2229 36.1901
rfemur -57.609 3.74234 31.3894
rtibia 40.5007
rfoot -47.1999 -35.1566
rtoes 33.7499
lfemur -12.6494 -5.06994 -23.6477
ltibia 28.3294
lfoot -26.9974 41.344
ltoes 52.2522
421
root 1.33698 16.5757 28.3809 34.9576 5.93798 -0.935719
lowerback -15.8426 -2.19604 2.00751
upperback -13.0353 -3.03853 3.69975
thorax -4.98393 -1.51828 2.45589
lowerneck -7.60216 -0.320156 -1.59307
upperneck 44.644 -0.163098 -0.0845851
head 17.8858 -0.350923 0.224121
rclavicle 3.67752e-015 6.36111e-015
rhumerus -13.8616 -22.9035 -4.23158
rradius 22.203
rwrist 12.2617
rhand 21.1703 6.3073
rfingers 7.12502
rthumb 45.6237 -16.9423
lclavicle 3.67752e-015 6.36111e-015
lhumerus 54.0748 10.9438 6.89119
lradius 39.4939
lwrist -10.5546
lhand 19.8013 12.1554
lfingers 7.12502
lthumb 44.35 35.9065
rfemur -57.5013 3.2271 31.8379
rtibia 40.4677
rfoot -46.9464 -34.7096
rtoes 33.9652
lfemur -12.6243 -5.05991 -23.4533
ltibia 28.3895
lfoot -24.7129 42.3771
ltoes 51.7914
422
root 1.34192 16.5777 28.3828 34.9443 6.08356 -1.02837
lowerback -15.914 -2.2144 2.19967
upperback -13.014 -3.08631 3.74478
thorax -4.93028 -1.55443 2.38716
lowerneck -7.64923 -0.317909 -1.69159
upperneck 44.6813 -0.167697 -0.00647822
head 17.922 -0.360062 0.277859
rclavicle -2.26118e-014 2.38542e-015
rhumerus -13.9859 -21.8716 -4.28486
rradius 22.5281
rwrist 11.289
rhand 21.1048 6.17035
rfingers 7.12502
rthumb 45.5629 -17.104
lclavicle -2.26118e-014 2.38542e-015
lhumerus 54.0496 10.9516 6.77462
lradius 39.4599
lwrist -10.5281
lhand 19.674 11.9513
lfingers 7.12502
lthumb 44.2312 35.7474
rfemur -57.4632 3.02059 32.0663
rtibia 40.4466
rfoot -46.828 -34.4888
rtoes 34.1449
lfemur -12.6398 -4.98193 -23.2867
ltibia 28.4305
lfoot -23.4496 42.8292
ltoes 51.5588
423
root 1.34279 16.5774 28.3819 34.963 6.04176 -1.0135
lowerback -15.9509 -2.24358 2.12302
upperback -13.0269 -3.11755 3.76703
thorax -4.91893 -1.564 2.44893
lowerneck -7.65443 -0.287144 -1.60633
upperneck 44.7331 -0.119221 -0.0632978
head 17.9547 -0.334058 0.243305
rclavicle 2.92835e-014 -2.3059e-014
rhumerus -13.9536 -21.5962 -4.33934
rradius 22.5862
rwrist 11.1148
rhand 21.1208 6.09687
rfingers 7.12502
rthumb 45.5777 -17.1714
lclavicle 2.92835e-014 -2.3059e-014
lhumerus 53.9641 10.8667 6.48732
lradius 39.5098
lwrist -10.2753
lhand 19.4515 12.0809
lfingers 7.12502
lthumb 44.0238 35.9549
rfemur -57.4622 2.90559 32.1316
rtibia 40.4251
rfoot -46.6271 -34.3282
rtoes 34.4343
lfemur -12.6757 -4.89457 -23.3226
ltibia 28.4744
lfoot -24.1736 42.5268
ltoes 51.7778
424
root 1.34175 16.5748 28.3821 34.9788 5.91735 -0.966797
lowerback -15.9632 -2.26831 1.98488
upperback -13.0735 -3.13472 3.7649
thorax -4.9561 -1.56315 2.52343
lowerneck -7.52234 -0.263295 -1.59379
upperneck 44.7592 -0.102071 -0.0373465
head 17.9353 -0.322443 0.255871
rclavicle -4.48881e-014 6.36111e-015
rhumerus -13.8887 -21.7487 -4.373
rradius 22.5491
rwrist 11.4001
rhand 21.17 5.99393
rfingers 7.12502
rthumb 45.6234 -17.2558
lclavicle -4.48881e-014 6.36111e-015
lhumerus 53.8951 10.8101 6.39592
lradius 39.6393
lwrist -10.3127
lhand 19.5318 12.1194
lfingers 7.12502
lthumb 44.0987 35.9654
rfemur -57.4741 3.03904 31.982
rtibia 40.3922
rfoot -46.8116 -34.635
rtoes 33.4313
lfemur -12.707 -4.86848 -23.4402
ltibia 28.5312
lfoot -23.8937 42.617
ltoes 51.7006
425
root 1.34187 16.5731 28.38 34.964 5.90114 -1.00897
lowerback -16.0601 -2.26909 1.98288
upperback -13 -3.14155 3.79317
thorax -4.82145 -1.56545 2.54592
lowerneck -7.57152 -0.246406 -1.70253
upperneck 44.721 -0.117918 0.129303
head 17.9249 -0.325446 0.3515
rclavicle 2.92835e-014 -1.98785e-014
rhumerus -13.8466 -21.9782 -4.36973
rradius 22.5347
rwrist 11.5117
rhand 21.3278 5.70507
rfingers 7.12502
rthumb 45.77 -17.4846
lclavicle 2.92835e-014 -1.98785e-014
lhumerus 53.9086 10.8796 6.29365
lradius 39.7236
lwrist -10.2686
lhand 19.7188 12.0559
lfingers 7.12502
lthumb 44.273 35.8362
rfemur -57.4318 3.05504 32.0286
rtibia 40.3407
rfoot -47.0261 -34.6398
rtoes 32.819
lfemur -12.7444 -4.79623 -23.4114
ltibia 28.5973
lfoot -22.723 43.0552
ltoes 51.4286
